<svg width="28" height="28" viewBox="0 0 28 28" fill="none" xmlns="http://www.w3.org/2000/svg">
<path d="M7.58342 25.0834C7.4655 25.0834 9.94353 14.993 9.94353 14.993C10.0039 14.7981 10.1623 14.6489 10.3605 14.6005C10.5582 14.5503 10.7684 14.6102 10.9125 14.7543L14.9959 18.8376C15.1155 18.9572 15.177 19.1224 15.165 19.2916C15.1531 19.4602 15.0688 19.6152 14.9332 19.7166L7.9332 24.9666C7.83009 25.0446 7.70647 25.0834 7.58342 25.0834Z" fill="#1A6E81"/>
<path d="M20.9957 26.2501C20.8715 26.2501 20.7479 26.2103 20.6459 26.1334L1.98382 12.1334C1.81463 12.0069 1.72747 11.7995 1.75538 11.5905C1.78273 11.3814 1.92115 11.2037 2.11712 11.1251L25.4505 1.79173C25.6493 1.71312 25.876 1.7473 26.04 1.88516C26.2047 2.02188 26.281 2.23778 26.2389 2.44798L21.5676 25.7813C21.5283 25.9778 21.391 26.1402 21.2036 26.212C21.1364 26.2376 21.0658 26.2501 20.9957 26.2501Z" fill="#34A7C0"/>
<path d="M7.58391 25.0836C7.55257 25.0836 7.52124 25.0814 7.48991 25.0762C7.20736 25.0301 7 24.7863 7 24.5003V15.7503C7 15.5657 7.08773 15.392 7.23584 15.282L25.3192 1.86537C25.567 1.68137 25.9133 1.72239 26.1121 1.95652C26.311 2.19179 26.2927 2.54042 26.0711 2.75405L10.0325 18.1717L8.13647 24.6849C8.05615 24.9258 7.83113 25.0836 7.58391 25.0836Z" fill="#4FC1DA"/>
</svg>
