<svg width="383" height="383" viewBox="0 0 383 383" fill="none" xmlns="http://www.w3.org/2000/svg">
<g clip-path="url(#clip0_486_2240)">
<path d="M191.5 191.5L154.957 3.52059C167.414 1.10019 178.806 0 191.5 0V191.5Z" fill="#091D6A"/>
<path d="M191.5 191.5L132.318 9.36858C140.367 6.75352 146.646 5.12863 154.957 3.51221L191.5 191.492V191.5Z" fill="#CE7F49"/>
<path d="M191.5 191.5H0C0 106.887 51.8526 35.519 132.318 9.36841L191.492 191.491L191.5 191.5Z" fill="#C1F4A6"/>
<path d="M191.5 191.5V383C85.7383 383 0 297.262 0 191.5H191.5Z" fill="#670C09"/>
<path d="M191.5 191.5V0C297.262 0 383 85.7383 383 191.5C383 297.262 297.262 383 191.5 383V191.5Z" fill="black"/>
</g>
<defs>
<clipPath id="clip0_486_2240">
<rect width="383" height="383" fill="white"/>
</clipPath>
</defs>
</svg>
