<svg width="58" height="58" viewBox="0 0 58 58" fill="none" xmlns="http://www.w3.org/2000/svg">
<circle cx="28.5246" cy="28.5246" r="28.5246" fill="#FFD252"/>
<g clip-path="url(#clip0_438_1047)">
<path d="M22.4654 30.2894L23.9654 32.8874L29.4214 29.7374L28.5429 33.0159L31.4116 33.7846L33.6077 25.5884L25.4116 23.3923L24.6429 26.2609L27.9214 27.1394L22.4654 30.2894ZM15.4212 36.0884C14.3837 34.2914 13.7499 32.4057 13.5199 30.4312C13.2898 28.4567 13.4214 26.5476 13.9146 24.704C14.4088 22.8598 15.2493 21.1407 16.4363 19.5467C17.6233 17.9526 19.1151 16.6364 20.9116 15.598C22.7086 14.5605 24.5943 13.9267 26.5688 13.6967C28.5433 13.4666 30.4524 13.5982 32.296 14.0915C34.1402 14.5856 35.8593 15.4262 37.4533 16.6132C39.0474 17.8002 40.3636 19.2919 41.402 21.0884C42.4395 22.8854 43.0733 24.7712 43.3033 26.7457C43.5334 28.7202 43.4018 30.6292 42.9085 32.4729C42.4144 34.317 41.5741 36.0365 40.3876 37.6314C39.2011 39.2264 37.7091 40.5422 35.9116 41.5788C34.1146 42.6163 32.2288 43.2501 30.2543 43.4801C28.2799 43.7102 26.3708 43.5786 24.5271 43.0854C22.683 42.5912 20.9635 41.7509 19.3686 40.5644C17.7736 39.3779 16.4578 37.8859 15.4212 36.0884ZM18.0193 34.5884C19.6943 37.4896 22.1198 39.3657 25.2958 40.2167C28.4718 41.0677 31.5104 40.6557 34.4116 38.9807C37.3128 37.3057 39.1889 34.8802 40.0399 31.7042C40.8909 28.5282 40.4789 25.4896 38.8039 22.5884C37.1289 19.6872 34.7034 17.8111 31.5274 16.9601C28.3514 16.1091 25.3128 16.5211 22.4116 18.1961C19.5104 19.8711 17.6343 22.2966 16.7833 25.4726C15.9323 28.6486 16.3443 31.6872 18.0193 34.5884Z" fill="black"/>
</g>
<defs>
<clipPath id="clip0_438_1047">
<rect width="36" height="36" fill="white" transform="translate(35 4) rotate(60)"/>
</clipPath>
</defs>
</svg>
