<svg width="27" height="23" viewBox="0 0 27 23" fill="none" xmlns="http://www.w3.org/2000/svg">
<path d="M24.1162 6.08825C24.1269 6.32882 24.1269 6.55847 24.1269 6.79904C24.1376 14.0928 18.7224 22.513 8.81942 22.513C5.89863 22.513 3.03114 21.6491 0.568726 20.0307C0.995118 20.0853 1.42151 20.1072 1.8479 20.1072C4.26768 20.1072 6.6235 19.2761 8.5316 17.7343C6.22908 17.6905 4.20372 16.1487 3.50017 13.896C4.31032 14.06 5.14178 14.0272 5.93061 13.7976C3.42555 13.2946 1.62405 11.031 1.61339 8.39558C1.61339 8.37371 1.61339 8.35184 1.61339 8.32997C2.35957 8.75645 3.2017 8.99702 4.05448 9.01889C1.69867 7.40048 0.963139 4.17459 2.39155 1.64855C5.13112 5.10408 9.16053 7.19271 13.4884 7.42235C13.0514 5.50868 13.6483 3.4966 15.0448 2.14063C17.2087 0.0520058 20.6198 0.161358 22.6665 2.38121C23.8711 2.14063 25.033 1.68135 26.0883 1.03618C25.6832 2.3156 24.8411 3.39818 23.7218 4.0871C24.7878 3.95588 25.8325 3.66063 26.8132 3.22322C26.0883 4.33861 25.1716 5.30091 24.1162 6.08825Z" fill="#0D88CD"/>
</svg>
